<svg width="90" height="90" viewBox="0 0 90 90" fill="none" xmlns="http://www.w3.org/2000/svg">
<g clip-path="url(#clip0_59_16)">
<path fill-rule="evenodd" clip-rule="evenodd" d="M18.6938 7.5C13.5563 7.5 9.7575 11.9963 9.93 16.8675C10.0913 21.555 9.88125 27.6188 8.355 32.565C6.8175 37.5225 4.23 40.665 0 41.07V45.6263C4.23 46.0275 6.82125 49.17 8.35125 54.1313C9.88125 59.0775 10.0913 65.1413 9.92625 69.825C9.7575 74.7 13.5563 79.1963 18.6938 79.1963H71.3138C76.4513 79.1963 80.25 74.7 80.0775 69.825C79.9163 65.1413 80.1263 59.0775 81.6525 54.1313C83.1863 49.17 85.77 46.0313 90 45.6263V41.07C85.77 40.665 83.1863 37.5225 81.6525 32.565C80.1263 27.615 79.9163 21.5513 80.0775 16.8675C80.25 11.9925 76.4475 7.5 71.3138 7.5H18.6938ZM61.0125 51.6338C61.0125 58.3463 56.0063 62.415 47.7 62.415H33.5588C33.154 62.415 32.7658 62.2542 32.4795 61.968C32.1933 61.6817 32.0325 61.2935 32.0325 60.8888V25.8038C32.0335 25.3996 32.1947 25.0124 32.4809 24.727C32.767 24.4415 33.1546 24.2812 33.5588 24.2813H47.6213C54.5475 24.2813 59.0962 28.0313 59.0962 33.795C59.0962 37.8375 56.0363 41.4563 52.14 42.0938V42.3038C57.4463 42.885 61.0162 46.56 61.0162 51.6338H61.0125ZM46.1625 29.115H38.1V40.5075H44.8912C50.1412 40.5075 53.0362 38.3925 53.0362 34.6125C53.0362 31.0725 50.5463 29.115 46.1625 29.115ZM38.1 45.0263V57.5775H46.4625C51.9263 57.5775 54.825 55.3838 54.825 51.2625C54.825 47.1375 51.8475 45.0263 46.11 45.0263H38.1V45.0263Z" fill="#126E82"/>
</g>
<defs>
<clipPath id="clip0_59_16">
<rect width="90" height="90" fill="white"/>
</clipPath>
</defs>
</svg>
