<svg width="90" height="90" viewBox="0 0 90 90" fill="none" xmlns="http://www.w3.org/2000/svg">
<path d="M61.0634 19.0083C53.878 12.7369 47.0462 6.74121 45.0094 0C43.0095 6.74121 36.1214 12.7369 28.9368 19.0083C18.1786 28.4238 5.9761 39.086 5.9761 55.0962C5.50669 73.9575 22.5977 89.5809 44.1502 89.9917C65.7026 90.4025 83.5547 75.4453 84.0241 56.584C84.0363 56.0882 84.0363 55.5922 84.0241 55.0962C84.0241 39.086 71.8216 28.4238 61.0634 19.0083V19.0083ZM26.0482 58.2075C24.8552 59.5205 23.8306 60.9443 22.993 62.4531C22.9307 62.5728 22.8385 62.6787 22.7231 62.7628C22.6076 62.847 22.472 62.9073 22.3263 62.9394H21.9931C21.1228 62.9394 20.1414 61.4486 20.1414 61.4486C19.8822 61.0921 19.6414 60.7192 19.4008 60.3304L19.2341 60.0224C16.975 55.5013 18.9378 49.0681 18.9378 49.0681C19.9053 45.9327 21.4839 42.9669 23.604 40.3014C24.8995 38.6086 26.3095 36.9852 27.8265 35.4398L29.6782 37.0603L38.418 44.871C38.582 45.0314 38.6726 45.2391 38.6726 45.4544C38.6726 45.6696 38.582 45.8774 38.418 46.0378L29.2887 54.9018L26.0482 58.2075ZM45.4537 80.5864C42.8566 80.5735 40.3188 79.9051 38.1449 78.6614C35.971 77.4178 34.2532 75.6516 33.1977 73.5749C32.1421 71.4982 31.7936 69.199 32.194 66.9532C32.5943 64.7075 33.7265 62.6105 35.4547 60.9138C38.3069 57.9482 41.7874 55.0315 45.5648 51.1908C50.0458 55.3718 52.9715 58.2397 55.8416 61.3837C56.0665 61.6262 56.2649 61.8866 56.4342 62.1615C58.0041 64.1165 58.8448 66.4484 58.8413 68.8379C58.8462 70.3764 58.5047 71.9008 57.8364 73.3239C57.1682 74.747 56.1861 76.0409 54.9464 77.1319C53.7067 78.2228 52.2336 79.0894 50.6113 79.6821C48.9889 80.2749 47.249 80.5821 45.4909 80.5864H45.4537ZM70.7846 61.8047C70.6985 62.047 70.5367 62.2634 70.3175 62.4295C70.0983 62.5955 69.8304 62.7047 69.5441 62.7446H69.284C68.7528 62.5939 68.3043 62.2764 68.0248 61.8534C65.685 58.7818 63.0325 55.9018 60.0997 53.2485L56.5268 50.008L44.6585 39.2317C42.166 37.2106 39.7928 35.0796 37.5481 32.847C37.4928 32.7624 37.4309 32.6812 37.3629 32.6041C36.9592 32.1073 36.6411 31.5613 36.4189 30.9836V30.6756C36.2544 29.7946 36.337 28.8919 36.6596 28.0451C36.9821 27.1982 37.5349 26.4326 38.2704 25.8142C40.5666 23.8048 42.8811 21.7793 45.0661 19.6726C47.4732 22.0061 50.0474 24.2429 52.5839 26.4625C57.759 30.6802 62.442 35.3379 66.5637 40.3668C70.0437 44.679 71.9366 49.8182 71.9892 55.0972C71.9596 57.3722 71.5539 59.6315 70.7846 61.8047V61.8047Z" fill="#126E82"/>
</svg>
