<svg width="30" height="30" viewBox="0 0 30 30" fill="none" xmlns="http://www.w3.org/2000/svg">
<path d="M20.3545 6.33609C17.9593 4.24564 15.6821 2.24707 15.0032 0C14.3365 2.24707 12.0405 4.24564 9.64561 6.33609C6.05952 9.47461 1.99204 13.0287 1.99204 18.3654C1.83557 24.6525 7.53256 29.8603 14.7167 29.9972C21.9009 30.1342 27.8516 25.1484 28.008 18.8613C28.0121 18.6961 28.0121 18.5307 28.008 18.3654C28.008 13.0287 23.9406 9.47461 20.3545 6.33609V6.33609ZM8.68275 19.4025C8.28508 19.8402 7.94355 20.3148 7.66433 20.8177C7.64358 20.8576 7.61283 20.8929 7.57436 20.9209C7.53588 20.949 7.49068 20.9691 7.44211 20.9798H7.33103C7.04092 20.9798 6.71379 20.4829 6.71379 20.4829C6.62742 20.364 6.54714 20.2397 6.46693 20.1101L6.41136 20.0075C5.65834 18.5004 6.31261 16.356 6.31261 16.356C6.63512 15.3109 7.1613 14.3223 7.868 13.4338C8.29984 12.8695 8.76985 12.3284 9.27549 11.8133L9.89274 12.3534L12.806 14.957C12.8607 15.0105 12.8909 15.0797 12.8909 15.1515C12.8909 15.2232 12.8607 15.2925 12.806 15.3459L9.76291 18.3006L8.68275 19.4025ZM15.1513 26.8621C14.2855 26.8578 13.4396 26.635 12.715 26.2205C11.9903 25.8059 11.4177 25.2172 11.0659 24.525C10.714 23.8327 10.5979 23.0663 10.7313 22.3177C10.8648 21.5692 11.2422 20.8702 11.8182 20.3046C12.769 19.3161 13.9292 18.3438 15.1883 17.0636C16.6819 18.4573 17.6572 19.4132 18.6139 20.4612C18.6888 20.5421 18.755 20.6289 18.8114 20.7205C19.3347 21.3722 19.615 22.1495 19.6138 22.946C19.6154 23.4588 19.5016 23.9669 19.2788 24.4413C19.0561 24.9157 18.7287 25.347 18.3155 25.7106C17.9023 26.0743 17.4112 26.3631 16.8704 26.5607C16.3296 26.7583 15.7497 26.8607 15.1636 26.8621H15.1513ZM23.5949 20.6016C23.5662 20.6823 23.5122 20.7545 23.4392 20.8098C23.3661 20.8652 23.2768 20.9016 23.1814 20.9149H23.0947C22.9176 20.8646 22.7681 20.7588 22.6749 20.6178C21.895 19.5939 21.0108 18.6339 20.0332 17.7495L18.8423 16.6693L14.8862 13.0772C14.0553 12.4035 13.2643 11.6932 12.516 10.949C12.4976 10.9208 12.477 10.8937 12.4543 10.868C12.3197 10.7024 12.2137 10.5204 12.1396 10.3279V10.2252C12.0848 9.93154 12.1124 9.63063 12.2199 9.34835C12.3274 9.06607 12.5116 8.81088 12.7568 8.60473C13.5222 7.93494 14.2937 7.25977 15.022 6.55752C15.8244 7.33535 16.6825 8.08096 17.528 8.82082C19.253 10.2267 20.814 11.7793 22.1879 13.4556C23.3479 14.893 23.9789 16.6061 23.9964 18.3657C23.9865 19.1241 23.8513 19.8772 23.5949 20.6016V20.6016Z" fill="#F5F5F5"/>
</svg>
