<svg width="90" height="90" viewBox="0 0 90 90" fill="none" xmlns="http://www.w3.org/2000/svg">
<g clip-path="url(#clip0_59_6)">
<path d="M88.3012 40.9894L49.005 1.69876C48.467 1.16045 47.8281 0.733433 47.125 0.442091C46.4219 0.150748 45.6683 0.000793457 44.9072 0.000793457C44.1461 0.000793457 43.3925 0.150748 42.6893 0.442091C41.9862 0.733433 41.3474 1.16045 40.8094 1.69876L32.6531 9.85501L43.0031 20.205C44.2238 19.7882 45.537 19.723 46.7929 20.0168C48.0488 20.3106 49.1969 20.9516 50.106 21.8666C51.0151 22.7816 51.6487 23.9337 51.9344 25.1915C52.2201 26.4493 52.1465 27.7621 51.7219 28.98L61.695 38.9588C63.1705 38.4392 64.7789 38.4377 66.2555 38.9543C67.732 39.4709 68.9886 40.475 69.8183 41.8011C70.648 43.1272 71.0014 44.6963 70.8203 46.2501C70.6392 47.8039 69.9343 49.2497 68.8219 50.3494C67.6957 51.4825 66.211 52.1895 64.6214 52.3495C63.0319 52.5095 61.436 52.1127 60.1066 51.2268C58.7771 50.341 57.7964 49.021 57.3321 47.4924C56.8677 45.9637 56.9485 44.3213 57.5606 42.8456L48.2625 33.5419V58.0275C49.6758 58.7271 50.8067 59.89 51.4666 61.3222C52.1265 62.7545 52.2756 64.3697 51.889 65.8986C51.5024 67.4275 50.6035 68.7777 49.3421 69.7241C48.0807 70.6706 46.533 71.1562 44.957 71.0999C43.381 71.0436 41.8719 70.4489 40.6813 69.4148C39.4906 68.3808 38.6903 66.9699 38.4138 65.4173C38.1372 63.8648 38.4011 62.2643 39.1615 60.8828C39.9219 59.5012 41.1329 58.422 42.5925 57.825V33.1144C41.7504 32.7693 40.9849 32.261 40.3401 31.6187C39.6954 30.9764 39.1842 30.2128 38.8359 29.372C38.4877 28.5312 38.3093 27.6297 38.3111 26.7196C38.3128 25.8096 38.4947 24.9088 38.8462 24.0694L28.6481 13.8656L1.70437 40.8094C1.16607 41.3474 0.739048 41.9862 0.447706 42.6894C0.156363 43.3925 0.00640869 44.1461 0.00640869 44.9072C0.00640869 45.6683 0.156363 46.4219 0.447706 47.125C0.739048 47.8281 1.16607 48.467 1.70437 49.005L41.0006 88.3013C41.5387 88.8396 42.1775 89.2666 42.8806 89.5579C43.5837 89.8493 44.3373 89.9992 45.0984 89.9992C45.8595 89.9992 46.6131 89.8493 47.3163 89.5579C48.0194 89.2666 48.6582 88.8396 49.1962 88.3013L88.3069 49.1906C89.3926 48.1033 90.0025 46.6295 90.0025 45.0928C90.0025 43.5562 89.3926 42.0824 88.3069 40.995" fill="#126E82"/>
</g>
<defs>
<clipPath id="clip0_59_6">
<rect width="90" height="90" fill="white"/>
</clipPath>
</defs>
</svg>
