<svg width="90" height="90" viewBox="0 0 90 90" fill="none" xmlns="http://www.w3.org/2000/svg">
<path d="M26.2941 38.2753H22.7475L20.8153 48.2063H23.9653C26.0437 48.2063 27.5963 47.8125 28.6228 47.0222C29.6325 46.2459 30.3216 44.9269 30.6731 43.0959C31.0219 41.3381 30.8616 40.0922 30.2203 39.3609C29.5594 38.6438 28.2544 38.2781 26.2941 38.2781V38.2753ZM45 21.33C20.1403 21.33 0 31.9359 0 45C0 58.0641 20.1403 68.67 45 68.67C69.8597 68.67 90 58.0641 90 45C90 31.9359 69.8597 21.33 45 21.33ZM32.7684 49.2778C31.7948 50.2136 30.623 50.9182 29.34 51.3394C28.08 51.7359 26.4713 51.9553 24.5222 51.9553H20.0812L18.8663 58.2553H13.6941L18.3094 34.5403H28.2403C31.23 34.5403 33.4125 35.3166 34.7878 36.8831C36.1519 38.4497 36.5766 40.6491 36.0169 43.4616C35.8074 44.5753 35.423 45.6489 34.8778 46.6425C34.3168 47.6266 33.604 48.516 32.7656 49.2778H32.7684ZM47.8716 51.9553L49.9078 41.4563C50.1413 40.2666 50.0541 39.4509 49.6406 39.0066C49.2469 38.5819 48.3806 38.3625 47.0644 38.3625H42.9778L40.3425 51.9553H35.2012L39.8138 28.2263H44.9409L43.7119 34.5403H48.2822C51.1706 34.5403 53.145 35.0381 54.2306 36.0338C55.3303 37.0463 55.6509 38.6691 55.2291 40.9134L53.0719 51.9581L47.8716 51.9553ZM76.3453 43.4616C76.1423 44.5771 75.7575 45.6517 75.2063 46.6425C74.6505 47.6255 73.9434 48.5149 73.1109 49.2778C72.1285 50.2091 70.9532 50.9129 69.6684 51.3394C68.4084 51.7359 66.7969 51.9553 64.8506 51.9553H60.4266L59.1975 58.2553H54.0253L58.6406 34.5403H68.5716C71.5612 34.5403 73.7438 35.3166 75.1191 36.9C76.4831 38.4525 76.9078 40.6491 76.3481 43.4616H76.3453ZM66.6225 38.2753H63.09L61.1578 48.2063H64.2938C66.3863 48.2063 67.9388 47.8125 68.9513 47.0222C69.975 46.2459 70.6641 44.9269 71.0184 43.0959C71.3672 41.3381 71.2069 40.0922 70.5459 39.3609C69.9047 38.6438 68.5856 38.2781 66.6225 38.2781V38.2753Z" fill="#F5F5F5"/>
</svg>
