<svg width="90" height="90" viewBox="0 0 90 90" fill="none" xmlns="http://www.w3.org/2000/svg">
<path d="M42.4462 66.607C42.404 66.7125 42.3619 66.7969 42.4462 66.607V66.607ZM77.4801 51.3141C74.6518 51.3129 71.8611 52.1249 69.3239 53.6871C68.4942 51.5953 67.6364 49.7672 67.4958 48.3961C67.327 46.7965 67.1442 45.8473 67.3411 43.9488C67.538 42.0504 68.4239 39.3609 68.4098 39.1676C68.3958 38.9742 68.213 38.0074 66.3989 37.9898C64.5848 37.9723 63.0239 38.4293 62.8425 39.027C62.5221 40.1192 62.2728 41.242 62.0972 42.3844C61.7737 44.441 58.4705 51.7887 56.6001 55.6207C55.9814 54.1266 55.4611 52.8082 55.3486 51.7535C55.1798 50.1539 54.997 49.2047 55.1939 47.3063C55.3908 45.4078 56.2767 42.7184 56.2626 42.525C56.2486 42.3316 56.0658 41.3648 54.2531 41.3473C52.4405 41.3297 50.8781 41.7867 50.6953 42.3844C50.5125 42.982 50.3156 44.3883 49.95 45.7418C49.5844 47.0953 45.1842 59.3297 44.0325 62.5113C43.4419 64.1285 42.9356 65.4293 42.57 66.3082C42.5137 66.4488 42.4715 66.5367 42.4434 66.607C42.4856 66.5191 42.5137 66.4313 42.5137 66.4664C42.2044 67.2223 42.0215 67.6441 42.0215 67.6441V67.6617C41.7825 68.2242 41.5153 68.734 41.3887 68.734C41.3044 68.734 41.1215 67.2574 41.4309 65.2359C42.0919 60.982 43.6528 54.3727 43.6387 54.1441C43.6247 54.0211 43.934 52.8785 42.6122 52.2633C41.3325 51.6832 40.8684 52.65 40.7559 52.65C40.6434 52.65 40.5591 53.0016 40.5591 53.0016C40.5591 53.0016 41.9794 45.5484 37.8323 45.5484C35.2448 45.5484 31.6448 49.0992 29.8758 52.316C28.7648 53.0719 26.3601 54.7066 23.8289 56.4469C22.8586 57.1148 21.8601 57.8004 20.918 58.4508C20.8476 58.3629 20.7914 58.275 20.7211 58.1871C15.6881 51.4723 6.39561 46.7262 6.78936 37.7086C6.92999 34.4215 7.84405 25.7906 24.6586 15.3141C38.4398 6.73594 49.4578 9.09141 51.3548 14.3297C54.083 21.8004 45.464 35.7047 31.1526 37.7086C25.6978 38.4645 22.8305 35.8277 22.1133 34.8434C21.368 33.8063 21.2555 33.7535 20.9742 33.9469C20.5101 34.2633 20.8055 35.1773 20.9742 35.7223C21.3961 37.1109 23.1539 39.5719 26.1478 40.8023C28.7775 41.8746 35.1731 42.4723 42.9061 38.7281C51.5939 34.5445 58.3565 22.8902 56.3737 13.1344C54.3544 3.22031 41.2031 -0.0316388 28.7676 5.48789C21.3581 8.775 13.3453 13.943 7.58108 20.6754C0.73405 28.691 -0.361419 35.6695 0.088581 38.5875C1.6903 48.941 13.1062 55.691 17.6751 60.6832C17.4501 60.8414 17.2392 60.982 17.0423 61.1227C14.7515 62.5465 6.04827 68.2418 3.86999 74.2535C1.40905 81.0738 4.2778 85.9606 6.16077 86.6285C12.0375 88.6676 18.0548 84.9938 21.2878 78.9645C24.5208 72.9352 24.1284 65.0602 22.6378 61.4742C22.6237 61.4215 22.5956 61.3863 22.5815 61.3336C23.1722 60.8941 23.7769 60.4547 24.3815 60.0152C25.5473 59.1539 26.6864 58.3629 27.6848 57.6773C27.1223 59.5758 26.7145 61.8609 26.5036 65.1656C26.2505 69.0328 27.5301 74.0426 29.1895 76.0113C29.9208 76.8727 30.8053 76.8902 31.3537 76.8902C33.2944 76.8902 34.1662 74.8863 35.1351 72.4957C36.3305 69.5777 37.3851 66.1852 37.3851 66.1852C37.3851 66.1852 36.0633 75.3609 39.6773 75.3609C40.9978 75.3609 42.3197 73.234 42.9117 72.1441V72.1617C42.9117 72.1617 42.9398 72.0914 43.0101 71.9508C43.1508 71.6871 43.2211 71.5289 43.2211 71.5289V71.4762C43.7555 70.3336 44.9226 67.7145 46.679 63.3902C48.9572 57.8004 51.1355 50.8219 51.1355 50.8219C51.3459 52.3559 51.6372 53.8709 52.0073 55.357C52.4011 57.027 53.2308 58.8551 53.8917 60.6305C53.3573 61.5445 53.0339 62.0719 53.0339 62.0719C53.0349 62.0854 53.0399 62.0979 53.048 62.107C52.6261 62.8102 52.148 63.566 51.6558 64.3043C49.8572 66.9762 47.7183 70.0348 47.437 70.9137C47.0995 71.9508 47.1839 72.7242 47.8308 73.3219C48.3089 73.7789 49.1526 73.8492 50.0372 73.7613C51.6544 73.6207 52.7934 73.1285 53.3419 72.8121C54.3529 72.3589 55.3085 71.7318 56.1811 70.9488C57.9389 69.3316 59.0076 67.0113 58.9092 63.9527C58.853 62.2652 58.417 60.5777 57.8826 58.9957C58.0373 58.7145 58.2061 58.4156 58.3608 58.1168C61.1437 53.0367 63.2953 47.4609 63.2953 47.4609C63.5058 48.995 63.797 50.51 64.1672 51.9961C64.5047 53.4199 65.1642 54.9844 65.7689 56.5137C63.1547 59.168 61.5375 62.2441 60.975 64.2656C59.9344 68.0098 60.75 69.6973 62.2828 70.084C62.9719 70.2598 63.9562 69.8555 64.6875 69.4688C65.7735 69.0166 66.7975 68.3585 67.7236 67.5176C69.4814 65.9004 71.1815 63.6328 71.069 60.5566C71.0269 59.168 70.7175 57.7793 70.3097 56.4434C72.5175 55.2832 75.3848 54.6504 79.0411 55.1777C86.8711 56.3203 88.4039 62.4375 88.1086 64.9863C87.8133 67.5352 86.168 68.959 85.6195 69.3809C85.0711 69.8027 84.9023 69.9609 84.9445 70.2773C85.0148 70.7344 85.268 70.7168 85.732 70.6113C86.3789 70.4707 89.8369 68.5371 89.9916 63.8086C90.2166 57.832 85.6195 51.2578 77.4759 51.3105L77.4801 51.3141ZM17.1267 76.7496C14.5406 80.2828 10.9125 81.6188 9.35296 80.4938C7.67952 79.2773 8.34046 74.0777 11.5312 70.3125C13.4719 68.0273 15.9736 65.918 17.633 64.6172C18.0126 64.3359 18.5611 63.9141 19.2361 63.4043C19.3486 63.3164 19.4048 63.2813 19.4048 63.2813C19.5314 63.1758 19.672 63.0879 19.8126 62.9824C20.9784 68.3262 19.8548 73.0371 17.1267 76.7461V76.7496ZM36.0211 60.6832C35.1211 63.443 33.224 70.4742 32.0709 70.1051C31.0865 69.7887 30.4819 64.4273 31.874 59.1539C32.5772 56.4996 34.0678 53.3356 34.9537 52.1051C36.3726 50.1188 37.9336 49.4859 38.2992 50.277C38.7914 51.3141 36.5836 58.9605 36.0211 60.6832ZM51.6305 69.9996C51.2508 70.2457 50.8992 70.4039 50.7305 70.2809C50.6039 70.193 50.8851 69.859 50.8851 69.859C50.8851 69.859 52.8398 67.2398 53.6133 66.0445C54.0633 65.3414 54.5836 64.5152 55.1447 63.6012C55.1447 63.6891 55.1587 63.777 55.1587 63.8824C55.1405 67.0289 52.7231 69.1559 51.6262 69.9996H51.6305ZM63.6651 66.5719C63.3839 66.3258 63.4261 65.4996 64.3683 62.9332C64.7339 61.9313 65.5762 60.2438 67.0401 58.6266C67.2059 59.2387 67.296 59.8789 67.3073 60.525C67.2933 64.4801 65.0292 65.9566 63.6665 66.5719H63.6651Z" fill="#126E82"/>
</svg>
